<svg aria-hidden="true" style="position: absolute; width: 0; height: 0; overflow: hidden;" version="1.1" xmlns="http://www.w3.org/2000/svg" xmlns:xlink="http://www.w3.org/1999/xlink">
<defs>
<symbol id="icon-vector-2" viewBox="0 0 29 32">
<path fill="#2196f3" style="fill: var(--color1, #2196f3)" d="M0 18.479c0.010 3.295 1.487 6.453 4.108 8.784s6.175 3.644 9.883 3.654c3.707-0.010 7.26-1.323 9.881-3.652s4.099-5.487 4.11-8.781v-18.172c0 0-27.981 2.772-27.981 18.168zM13.991 21.735c-0.725 0-1.433-0.191-2.035-0.549s-1.072-0.866-1.349-1.461c-0.277-0.595-0.35-1.25-0.208-1.881s0.49-1.212 1.003-1.667c0.512-0.455 1.165-0.765 1.876-0.891s1.447-0.061 2.117 0.185c0.67 0.246 1.242 0.664 1.644 1.199s0.617 1.165 0.617 1.809c0.002 0.428-0.092 0.853-0.275 1.25s-0.453 0.757-0.793 1.060c-0.34 0.304-0.745 0.545-1.19 0.709s-0.923 0.249-1.405 0.249v-0.012z"></path>
</symbol>
<symbol id="icon-vector-4" viewBox="0 0 29 32">
<path fill="#2196f3" style="fill: var(--color1, #2196f3)" d="M27.801 13.097c-0.008-3.266-1.471-6.397-4.069-8.707s-6.121-3.611-9.796-3.618v0c-3.676 0.006-7.2 1.306-9.8 3.616s-4.064 5.441-4.071 8.709v18.011c0 0 27.733-2.745 27.737-18.009v-0.003z"></path>
</symbol>
<symbol id="icon-vector-5" viewBox="0 0 40 32">
<path fill="#2196f3" style="fill: var(--color1, #2196f3)" d="M20.585 0.411h-0.011c-9.592 0-17.368 6.91-17.368 15.435v0.010c0 8.524 7.776 15.435 17.368 15.435h0.011c9.592 0 17.368-6.91 17.368-15.435v-0.010c0-8.524-7.776-15.435-17.368-15.435z"></path>
</symbol>
<symbol id="icon-foster-peters" viewBox="0 0 245 32">
<path fill="#2196f3" style="fill: var(--color1, #2196f3)" d="M18.228 18.473h-9v9.297h-4.687v-22.75h14.813v3.797h-10.125v5.875h9v3.781zM40.759 16.911c0 2.24-0.396 4.203-1.187 5.891s-1.927 2.99-3.406 3.906c-1.469 0.917-3.156 1.375-5.063 1.375-1.885 0-3.568-0.453-5.047-1.359s-2.625-2.198-3.438-3.875c-0.813-1.688-1.224-3.625-1.234-5.813v-1.125c0-2.24 0.401-4.208 1.203-5.906 0.812-1.708 1.953-3.016 3.422-3.922 1.479-0.917 3.167-1.375 5.063-1.375s3.578 0.458 5.047 1.375c1.479 0.906 2.62 2.214 3.422 3.922 0.812 1.698 1.219 3.662 1.219 5.891v1.016zM36.009 15.88c0-2.385-0.427-4.198-1.281-5.438s-2.073-1.859-3.656-1.859c-1.573 0-2.786 0.615-3.641 1.844-0.854 1.219-1.286 3.010-1.297 5.375v1.109c0 2.323 0.427 4.125 1.281 5.406s2.083 1.922 3.688 1.922c1.573 0 2.781-0.615 3.625-1.844 0.844-1.24 1.271-3.042 1.281-5.406v-1.109zM55.962 21.801c0-0.885-0.313-1.563-0.938-2.031-0.625-0.479-1.75-0.979-3.375-1.5-1.625-0.531-2.911-1.052-3.859-1.563-2.583-1.396-3.875-3.276-3.875-5.641 0-1.229 0.344-2.323 1.031-3.281 0.698-0.969 1.693-1.724 2.984-2.266 1.302-0.542 2.76-0.812 4.375-0.812 1.625 0 3.073 0.297 4.344 0.891 1.271 0.583 2.255 1.411 2.953 2.484 0.708 1.073 1.063 2.292 1.063 3.656h-4.688c0-1.042-0.328-1.849-0.984-2.422-0.657-0.583-1.578-0.875-2.766-0.875-1.146 0-2.036 0.245-2.672 0.734-0.635 0.479-0.953 1.115-0.953 1.906 0 0.74 0.37 1.359 1.109 1.859 0.75 0.5 1.849 0.969 3.297 1.406 2.667 0.802 4.61 1.797 5.828 2.984s1.828 2.667 1.828 4.438c0 1.969-0.745 3.516-2.235 4.641-1.49 1.115-3.495 1.672-6.016 1.672-1.75 0-3.344-0.318-4.781-0.953-1.438-0.646-2.536-1.526-3.297-2.641-0.75-1.115-1.125-2.406-1.125-3.875h4.703c0 2.51 1.5 3.766 4.5 3.766 1.115 0 1.985-0.224 2.609-0.672 0.625-0.458 0.938-1.094 0.938-1.906zM80.978 8.817h-6.969v18.953h-4.687v-18.953h-6.875v-3.797h18.531v3.797zM97.353 17.911h-9v6.094h10.562v3.766h-15.25v-22.75h15.219v3.797h-10.531v5.422h9v3.672zM110.087 19.442h-3.734v8.328h-4.687v-22.75h8.453c2.687 0 4.761 0.599 6.219 1.797s2.188 2.891 2.188 5.078c0 1.552-0.339 2.849-1.015 3.891-0.667 1.031-1.683 1.854-3.047 2.469l4.922 9.297v0.219h-5.031l-4.266-8.328zM106.353 15.645h3.781c1.177 0 2.089-0.297 2.734-0.891 0.646-0.604 0.969-1.432 0.969-2.484 0-1.073-0.307-1.917-0.922-2.531-0.604-0.615-1.537-0.922-2.797-0.922h-3.765v6.828zM134.759 19.755v8.016h-4.687v-22.75h8.875c1.708 0 3.209 0.313 4.5 0.938 1.302 0.625 2.302 1.516 3 2.672 0.698 1.146 1.047 2.453 1.047 3.922 0 2.229-0.765 3.99-2.297 5.281-1.521 1.281-3.63 1.922-6.329 1.922h-4.109zM134.759 15.958h4.188c1.239 0 2.182-0.292 2.828-0.875 0.656-0.583 0.984-1.417 0.984-2.5 0-1.115-0.328-2.016-0.984-2.703s-1.563-1.042-2.719-1.063h-4.297v7.141zM164.415 17.911h-9v6.094h10.562v3.766h-15.25v-22.75h15.219v3.797h-10.531v5.422h9v3.672zM186.165 8.817h-6.969v18.953h-4.687v-18.953h-6.875v-3.797h18.531v3.797zM202.54 17.911h-9v6.094h10.563v3.766h-15.25v-22.75h15.219v3.797h-10.531v5.422h9v3.672zM215.275 19.442h-3.734v8.328h-4.687v-22.75h8.453c2.687 0 4.761 0.599 6.219 1.797s2.187 2.891 2.187 5.078c0 1.552-0.338 2.849-1.015 3.891-0.667 1.031-1.682 1.854-3.047 2.469l4.922 9.297v0.219h-5.031l-4.266-8.328zM211.54 15.645h3.781c1.177 0 2.089-0.297 2.734-0.891 0.646-0.604 0.969-1.432 0.969-2.484 0-1.073-0.307-1.917-0.922-2.531-0.604-0.615-1.537-0.922-2.797-0.922h-3.766v6.828zM239.087 21.801c0-0.885-0.313-1.563-0.938-2.031-0.625-0.479-1.75-0.979-3.375-1.5-1.625-0.531-2.911-1.052-3.86-1.563-2.583-1.396-3.875-3.276-3.875-5.641 0-1.229 0.343-2.323 1.031-3.281 0.698-0.969 1.693-1.724 2.985-2.266 1.302-0.542 2.761-0.812 4.375-0.812 1.625 0 3.073 0.297 4.344 0.891 1.27 0.583 2.255 1.411 2.953 2.484 0.708 1.073 1.062 2.292 1.062 3.656h-4.687c0-1.042-0.328-1.849-0.985-2.422-0.656-0.583-1.578-0.875-2.765-0.875-1.146 0-2.037 0.245-2.672 0.734-0.636 0.479-0.953 1.115-0.953 1.906 0 0.74 0.37 1.359 1.109 1.859 0.75 0.5 1.849 0.969 3.297 1.406 2.667 0.802 4.61 1.797 5.828 2.984s1.828 2.667 1.828 4.438c0 1.969-0.745 3.516-2.235 4.641-1.489 1.115-3.494 1.672-6.015 1.672-1.75 0-3.343-0.318-4.781-0.953-1.437-0.646-2.537-1.526-3.297-2.641-0.75-1.115-1.125-2.406-1.125-3.875h4.703c0 2.51 1.5 3.766 4.5 3.766 1.115 0 1.985-0.224 2.61-0.672 0.625-0.458 0.938-1.094 0.938-1.906z"></path>
</symbol>
</defs>
</svg>
